# xmcd
#
# Track frame offsets:
#	150
#	34857
#	70616
#	93626
#	132224
#	159750
#	202758
#	253581
#	299159
#	323339
#
# Disc length: 4344 seconds
#
# Revision: 0
# Processed by: cddbd v1.4PL0 Copyright (c) Steve Scherf et al.
# Submitted via: dBpowerAMP V4.0
#
DISCID=8310f60a
DTITLE=Rory Gallagher - Irish Tour
DYEAR=1974
DGENRE=Blues
TTITLE0=Cradle Rock
TTITLE1=I Wonder Who
TTITLE2=Tattoo´d Lady
TTITLE3=Too Much Alcohol
TTITLE4=As The Crow Flies
TTITLE5=A Million Miles Away
TTITLE6=Walk On Hot Coals
TTITLE7=Who´s That Coming?
TTITLE8=Back On My Stompin´Ground (After Hours)
TTITLE9=Maritime
EXTD=
EXTT0=
EXTT1=
EXTT2=
EXTT3=
EXTT4=
EXTT5=
EXTT6=
EXTT7=
EXTT8=
EXTT9=
PLAYORDER=
